<?xml version="1.0" encoding="UTF-8" standalone="no"?>
<!-- Creator: CorelDRAW X6 -->

<svg
   xmlns:dc="http://purl.org/dc/elements/1.1/"
   xmlns:cc="http://creativecommons.org/ns#"
   xmlns:rdf="http://www.w3.org/1999/02/22-rdf-syntax-ns#"
   xmlns:svg="http://www.w3.org/2000/svg"
   xmlns="http://www.w3.org/2000/svg"
   xmlns:sodipodi="http://sodipodi.sourceforge.net/DTD/sodipodi-0.dtd"
   xmlns:inkscape="http://www.inkscape.org/namespaces/inkscape"
   xml:space="preserve"
   width="495.46918"
   height="86.508972"
   version="1.1"
   style="clip-rule:evenodd;fill-rule:evenodd;image-rendering:optimizeQuality;shape-rendering:geometricPrecision;text-rendering:geometricPrecision"
   viewBox="0 0 5161.3414 901.16558"
   id="svg13"
   sodipodi:docname="banchile.svg"
   inkscape:version="0.92+devel unknown"><metadata
     id="metadata17"><rdf:RDF><cc:Work
         rdf:about=""><dc:format>image/svg+xml</dc:format><dc:type
           rdf:resource="http://purl.org/dc/dcmitype/StillImage" /><dc:title></dc:title></cc:Work></rdf:RDF></metadata><sodipodi:namedview
     pagecolor="#ffffff"
     bordercolor="#666666"
     inkscape:document-rotation="0"
     borderopacity="1"
     objecttolerance="10"
     gridtolerance="10"
     guidetolerance="10"
     inkscape:pageopacity="0"
     inkscape:pageshadow="2"
     inkscape:window-width="1825"
     inkscape:window-height="1014"
     id="namedview15"
     showgrid="false"
     units="px"
     fit-margin-top="5"
     fit-margin-left="10"
     fit-margin-bottom="5"
     fit-margin-right="10"
     inkscape:zoom="0.72430007"
     inkscape:cx="247.7346"
     inkscape:cy="43.302533"
     inkscape:window-x="0"
     inkscape:window-y="27"
     inkscape:window-maximized="0"
     inkscape:current-layer="svg13" /><defs
     id="defs4"><style
       type="text/css"
       id="style2"><![CDATA[
    .fil0 {fill:none}
    .fil1 {fill:#052769}
   ]]></style></defs><polygon
     class="fil0"
     points="0,4134 0,0 5827,0 5827,4134 "
     id="polygon7"
     transform="translate(-332.82921,-1616.9269)" /><path
     class="fil1"
     d="m 310.17079,52.073166 h 37 c 26,0 115,25 115,25 h 15 c 6,0 16,-5 19,-8 3,1 5,1 8,4 l -152,108.000004 c 0,0 -46,23 -46,44 v 271 l -150,104 c 2,-14 21,-28 21,-48 v -267 c 0,-21 144,-96 144,-117 0,-21 -85,-38 -85,-38 -27,-1 -38,-1 -65,0 -27,1 -57,18 -67,17 33,-22 121,-94.000004 206,-94.000004 z m 308.00001,6 v 0 c 23,0 37,25 77,77.000004 10,13 56,69 56,96 v 21 c 0,55 -144,110 -144,133 0,16 76,8 110,31 32,22 46,67 46,92 v 65 c 0,39 -54,54 -119,104 -29,22 -127.00001,88 -135.00001,88 0,0 -113,-62 -167,-62 h -73 c -31,0 -106,27 -111,27 0,0 114,-111 229,-111 h 77 c 16,0 70,22 85,27 v -488 c 0,-5 -6,-13 -15,-13 -21,0 -37,39 -37,40 v 290 c 0,13 -50,52 -77,67 -40,23 -66,46 -90,58 v -6 c 0,0 21,-23 21,-37 v -315 c 0,-4 34,-46 127,-100 54,-31 109.00001,-85.000004 142.00001,-85.000004 z m -44,133.000004 v 0 c 0,0 62,67 62,108 0,31 -24,43 -62,65 z m 0,227 v 0 c 6,2 40,22 40,37 v 221 c -10,4 -2,0 -8,0 -12,0 -33,-10 -33,-21 v -236 z m 1468,-83 v 0 l 136,67 v 296 l -129,63 -138,-60 v -309 l 131,-58 z m -630,-9 v 0 l 83,83 v 254 l 38,38 -63,62 -67,-63 v -236 c -1,-1 -42,-42 -50,-44 l -46,42 v 204 l 35,35 -65,63 -60,-58 v -256 c 0,0 -28,-24 -40,-38 l 81,-83 79,75 77,-77 z m 317,11 v 0 l 150,63 c -7,9 -53,42 -69,46 0,0 -122,-48 -125,-48 v 250 l 103,51 c 0,0 59,-20 74,-20 2,0 4,1 8,0 v 6 l -117,77 h -15 l -148,-67 v -290 l 140,-67 z m -757,-7 v 0 c 93,47 135,52 135,73 v 246 l 60,60 -56,54 c -41,-33 -56,-48 -56,-48 l -102,51 -140,-64 v -162 l 136,-67 75,31 v -67 l -120,-42 -60,7 -3,-10 z m 1029,63 v 0 l 89,42 v 263 l -90,-40 z m -1104,135 v 0 l 127,64 v 119 l -127,-59 z m 1751,-372 v 0 c 6,0 31,10 73,31 23,11 63,20 63,40 v 477 l -127,60 -140,-67 v -302 l 135,-60 c 5,1 48,17 48,17 v -96 l -112,-48 c -18,1 -40,19 -62,22 l 5,-19 c 0,0 101,-56 117,-56 z m 356,177 v 0 l 125,138 -183,135 v 37 c 0,8 108,57 108,57 0,0 53,-36 77,-22 -1,2 -129,85 -129,85 l -136,-60 v -304 l 138,-65 z m -398,60 v 0 l 92,42 v 263 h -2 l -90,-40 z m 342,6 v 0 l 92,96 -92,67 z m 1734,268 v 0 l 35,33 -69,65 -65,-65 v -442 l 100,-98 v 507 z m -532,-520 v 0 279 l 100,-98 75,75 v 354 l -94,92 h -2 v -398 l -37,-35 -42,37 v 210 l 37,35 v 2 l -67,67 -65,-65 v -457 l 96,-94 v -2 z m 286,0 v 0 h 2 l 65,65 v 2 l -67,67 -67,-67 z m 473,191 v 0 c 4,0 125,133 127,138 l -183,129 v 52 l 103,47 c 0,0 54,-7 73,-24 l 28,7 c -2,3 -127,80 -149,80 -5,0 -98,-36 -136,-62 v -294 c 0,-13 136,-73 136,-73 z m -471,-10 v 0 h 2 l 60,60 v 273 l 37,35 -69,67 -65,-65 v -273 l -31,-29 67,-67 z m 417,76 v 0 l 88,90 -87,56 z m -1077,-306.000004 v 0 h 8 c -6,16.000004 -110,66.000004 -150,111.000004 -62,71 -103,110 -96,220 4,64 55,159 113,193 18,10 75,42 129,44 78,3 47,-12 58,-6 v -465 c 0,-6 -14,-36 -27,-36 -4,0 -10,7 -10,12 v 321 c 0,12 -11,29 -65,65 -56,37 -73,49 -79,48 1,-3 10,-16 13,-19 v -334 c 0,-33 48,-52 90,-85 69,-53 107,-65 108,-65 h 17 c 46,0 75,56 81,62 0,0 13,5 17,10 h 27 c 8,0 27,-12 38,-10 -31,27 -130,90 -133,90 h -15 c -7,0 -18,-11 -31,-17 v 419 c 5,1 5,0 8,0 19,0 89,-51 92,-56 h 6 v 13 c 0,1 -29,53 -29,54 -60,69 -127,103 -223,103 -168,1 -287,-120 -300,-309 -13,-188 119,-342 275,-352 23,-1 50,0 54,0 0,0 21,-10.000004 23,-12.000004 z"
     id="path9"
     inkscape:connector-curvature="0" /></svg>